<mxfile host="app.diagrams.net" modified="2020-12-19T22:03:17.448Z" agent="5.0 (Windows NT 6.1; Win64; x64) AppleWebKit/537.36 (KHTML, like Gecko) Chrome/87.0.4280.88 Safari/537.36" etag="ZMXtBY8EZjAQ3iQXg-MK" version="14.1.1" type="github">
  <diagram name="Page-1" id="e7e014a7-5840-1c2e-5031-d8a46d1fe8dd">
    <mxGraphModel dx="1102" dy="582" grid="1" gridSize="10" guides="1" tooltips="1" connect="1" arrows="1" fold="1" page="1" pageScale="1" pageWidth="1169" pageHeight="826" background="#ffffff" math="0" shadow="0">
      <root>
        <mxCell id="0" />
        <mxCell id="1" parent="0" />
        <mxCell id="2" value="Widok listy," style="swimlane;whiteSpace=wrap" parent="1" vertex="1">
          <mxGeometry x="40" y="120" width="280" height="570" as="geometry" />
        </mxCell>
        <mxCell id="5" value="" style="ellipse;shape=startState;fillColor=#000000;strokeColor=#ff0000;" parent="2" vertex="1">
          <mxGeometry x="230" y="22" width="30" height="30" as="geometry" />
        </mxCell>
        <mxCell id="6" value="" style="edgeStyle=elbowEdgeStyle;elbow=horizontal;verticalAlign=bottom;endArrow=open;endSize=8;strokeColor=#FF0000;endFill=1;rounded=0" parent="2" source="5" target="7" edge="1">
          <mxGeometry x="100" y="40" as="geometry">
            <mxPoint x="115" y="110" as="targetPoint" />
          </mxGeometry>
        </mxCell>
        <mxCell id="lHbRoRdoCdreXLFXU-Cs-53" style="edgeStyle=orthogonalEdgeStyle;rounded=0;orthogonalLoop=1;jettySize=auto;html=1;exitX=0.5;exitY=1;exitDx=0;exitDy=0;" edge="1" parent="2" source="7" target="lHbRoRdoCdreXLFXU-Cs-43">
          <mxGeometry relative="1" as="geometry" />
        </mxCell>
        <mxCell id="7" value="Object  simulations" style="" parent="2" vertex="1">
          <mxGeometry x="10" y="32" width="110" height="50" as="geometry" />
        </mxCell>
        <mxCell id="8" value="delete" style="" parent="2" vertex="1">
          <mxGeometry x="150" y="442" width="110" height="50" as="geometry" />
        </mxCell>
        <mxCell id="10" value="switch to  widok edycji..&#xa;" style="" parent="2" vertex="1">
          <mxGeometry x="130" y="502" width="130" height="50" as="geometry" />
        </mxCell>
        <mxCell id="11" value="" style="endArrow=open;strokeColor=#FF0000;endFill=1;rounded=0" parent="2" source="8" target="10" edge="1">
          <mxGeometry relative="1" as="geometry" />
        </mxCell>
        <mxCell id="lHbRoRdoCdreXLFXU-Cs-57" style="edgeStyle=orthogonalEdgeStyle;rounded=0;orthogonalLoop=1;jettySize=auto;html=1;entryX=0.5;entryY=0;entryDx=0;entryDy=0;" edge="1" parent="2" source="lHbRoRdoCdreXLFXU-Cs-43" target="lHbRoRdoCdreXLFXU-Cs-44">
          <mxGeometry relative="1" as="geometry" />
        </mxCell>
        <mxCell id="lHbRoRdoCdreXLFXU-Cs-43" value="P - wielkość populacji" style="rounded=0;whiteSpace=wrap;html=1;" vertex="1" parent="2">
          <mxGeometry x="10" y="100" width="120" height="20" as="geometry" />
        </mxCell>
        <mxCell id="lHbRoRdoCdreXLFXU-Cs-44" value="I - początkowa liczba osób zarażonych" style="rounded=0;whiteSpace=wrap;html=1;" vertex="1" parent="2">
          <mxGeometry x="10" y="152" width="120" height="35" as="geometry" />
        </mxCell>
        <mxCell id="lHbRoRdoCdreXLFXU-Cs-59" style="edgeStyle=orthogonalEdgeStyle;rounded=0;orthogonalLoop=1;jettySize=auto;html=1;exitX=0.5;exitY=1;exitDx=0;exitDy=0;entryX=0.5;entryY=0;entryDx=0;entryDy=0;" edge="1" parent="2" source="lHbRoRdoCdreXLFXU-Cs-45" target="lHbRoRdoCdreXLFXU-Cs-46">
          <mxGeometry relative="1" as="geometry" />
        </mxCell>
        <mxCell id="lHbRoRdoCdreXLFXU-Cs-45" value="R - wskaźnik" style="rounded=0;whiteSpace=wrap;html=1;" vertex="1" parent="2">
          <mxGeometry x="10" y="202" width="120" height="18" as="geometry" />
        </mxCell>
        <mxCell id="lHbRoRdoCdreXLFXU-Cs-60" style="edgeStyle=orthogonalEdgeStyle;rounded=0;orthogonalLoop=1;jettySize=auto;html=1;exitX=0.5;exitY=1;exitDx=0;exitDy=0;entryX=0.5;entryY=0;entryDx=0;entryDy=0;" edge="1" parent="2" source="lHbRoRdoCdreXLFXU-Cs-46" target="lHbRoRdoCdreXLFXU-Cs-47">
          <mxGeometry relative="1" as="geometry" />
        </mxCell>
        <mxCell id="lHbRoRdoCdreXLFXU-Cs-46" value="M - wskaźnik śmiertelności" style="whiteSpace=wrap;html=1;" vertex="1" parent="2">
          <mxGeometry x="10" y="232" width="120" height="28" as="geometry" />
        </mxCell>
        <mxCell id="lHbRoRdoCdreXLFXU-Cs-61" style="edgeStyle=orthogonalEdgeStyle;rounded=0;orthogonalLoop=1;jettySize=auto;html=1;exitX=0.5;exitY=1;exitDx=0;exitDy=0;entryX=0.5;entryY=0;entryDx=0;entryDy=0;" edge="1" parent="2" source="lHbRoRdoCdreXLFXU-Cs-47" target="lHbRoRdoCdreXLFXU-Cs-49">
          <mxGeometry relative="1" as="geometry" />
        </mxCell>
        <mxCell id="lHbRoRdoCdreXLFXU-Cs-47" value="Ti - ilość dni," style="whiteSpace=wrap;html=1;" vertex="1" parent="2">
          <mxGeometry x="10" y="275" width="120" height="20" as="geometry" />
        </mxCell>
        <mxCell id="lHbRoRdoCdreXLFXU-Cs-62" style="edgeStyle=orthogonalEdgeStyle;rounded=0;orthogonalLoop=1;jettySize=auto;html=1;entryX=0.5;entryY=0;entryDx=0;entryDy=0;" edge="1" parent="2" source="lHbRoRdoCdreXLFXU-Cs-49" target="lHbRoRdoCdreXLFXU-Cs-50">
          <mxGeometry relative="1" as="geometry" />
        </mxCell>
        <mxCell id="lHbRoRdoCdreXLFXU-Cs-49" value="Tm - ilość dni od zarazenia do smierci" style="whiteSpace=wrap;html=1;" vertex="1" parent="2">
          <mxGeometry x="10" y="295" width="120" height="38" as="geometry" />
        </mxCell>
        <mxCell id="lHbRoRdoCdreXLFXU-Cs-50" value="Ts - Ilość dni dla których ma być symulacja" style="whiteSpace=wrap;html=1;" vertex="1" parent="2">
          <mxGeometry x="10" y="350" width="120" height="40" as="geometry" />
        </mxCell>
        <mxCell id="lHbRoRdoCdreXLFXU-Cs-66" value="new" style="whiteSpace=wrap;html=1;" vertex="1" parent="2">
          <mxGeometry x="145" y="370" width="120" height="60" as="geometry" />
        </mxCell>
        <mxCell id="3" value="Widok szczegółów symulacji" style="swimlane;whiteSpace=wrap" parent="1" vertex="1">
          <mxGeometry x="390" y="120" width="280" height="570" as="geometry" />
        </mxCell>
        <mxCell id="13" value="" style="ellipse;shape=startState;fillColor=#000000;strokeColor=#ff0000;" parent="3" vertex="1">
          <mxGeometry x="10" y="30" width="30" height="30" as="geometry" />
        </mxCell>
        <mxCell id="14" value="" style="edgeStyle=elbowEdgeStyle;elbow=horizontal;verticalAlign=bottom;endArrow=open;endSize=8;strokeColor=#FF0000;endFill=1;rounded=0" parent="3" source="13" target="15" edge="1">
          <mxGeometry x="40" y="20" as="geometry">
            <mxPoint x="55" y="90" as="targetPoint" />
          </mxGeometry>
        </mxCell>
        <mxCell id="15" value="Pi - liczba osób zarażonych" style="" parent="3" vertex="1">
          <mxGeometry x="55" y="70" width="160" height="50" as="geometry" />
        </mxCell>
        <mxCell id="16" value="Pv - liczbie osób zdrowych" style="" parent="3" vertex="1">
          <mxGeometry x="55" y="190" width="160" height="50" as="geometry" />
        </mxCell>
        <mxCell id="17" value="" style="endArrow=open;strokeColor=#FF0000;endFill=1;rounded=0" parent="3" source="15" target="16" edge="1">
          <mxGeometry relative="1" as="geometry" />
        </mxCell>
        <mxCell id="lHbRoRdoCdreXLFXU-Cs-65" style="edgeStyle=orthogonalEdgeStyle;rounded=0;orthogonalLoop=1;jettySize=auto;html=1;exitX=0.5;exitY=1;exitDx=0;exitDy=0;entryX=0.575;entryY=-0.017;entryDx=0;entryDy=0;entryPerimeter=0;" edge="1" parent="3" source="18" target="lHbRoRdoCdreXLFXU-Cs-63">
          <mxGeometry relative="1" as="geometry" />
        </mxCell>
        <mxCell id="18" value="Pm - liczba osób zmarłych" style="" parent="3" vertex="1">
          <mxGeometry x="65" y="320" width="140" height="50" as="geometry" />
        </mxCell>
        <mxCell id="19" value="" style="endArrow=open;strokeColor=#FF0000;endFill=1;rounded=0" parent="3" source="16" target="18" edge="1">
          <mxGeometry relative="1" as="geometry" />
        </mxCell>
        <mxCell id="lHbRoRdoCdreXLFXU-Cs-63" value="Pr - liczbie osób, które wyzdrowiały i nabyły odporność" style="whiteSpace=wrap;html=1;" vertex="1" parent="3">
          <mxGeometry x="75" y="440" width="120" height="60" as="geometry" />
        </mxCell>
        <mxCell id="4" value="Widok edycji parametrów symulacji" style="swimlane;whiteSpace=wrap" parent="1" vertex="1">
          <mxGeometry x="730" y="120" width="280" height="570" as="geometry" />
        </mxCell>
        <mxCell id="33" value="Submit" style="" parent="4" vertex="1">
          <mxGeometry x="130" y="460" width="110" height="50" as="geometry" />
        </mxCell>
        <mxCell id="38" value="" style="ellipse;shape=endState;fillColor=#000000;strokeColor=#ff0000" parent="4" vertex="1">
          <mxGeometry x="10" y="510" width="30" height="30" as="geometry" />
        </mxCell>
        <mxCell id="39" value="" style="endArrow=open;strokeColor=#FF0000;endFill=1;rounded=0" parent="4" source="33" target="38" edge="1">
          <mxGeometry relative="1" as="geometry" />
        </mxCell>
        <mxCell id="lHbRoRdoCdreXLFXU-Cs-68" value="P - wielkość populacji" style="rounded=0;whiteSpace=wrap;html=1;" vertex="1" parent="4">
          <mxGeometry x="130" y="90" width="120" height="20" as="geometry" />
        </mxCell>
        <mxCell id="lHbRoRdoCdreXLFXU-Cs-69" style="edgeStyle=orthogonalEdgeStyle;rounded=0;orthogonalLoop=1;jettySize=auto;html=1;exitX=0.5;exitY=1;exitDx=0;exitDy=0;" edge="1" parent="4" source="lHbRoRdoCdreXLFXU-Cs-68" target="lHbRoRdoCdreXLFXU-Cs-68">
          <mxGeometry relative="1" as="geometry" />
        </mxCell>
        <mxCell id="lHbRoRdoCdreXLFXU-Cs-70" value="I - początkowa liczba osób zarażonych" style="rounded=0;whiteSpace=wrap;html=1;" vertex="1" parent="4">
          <mxGeometry x="130" y="130" width="120" height="35" as="geometry" />
        </mxCell>
        <mxCell id="lHbRoRdoCdreXLFXU-Cs-71" value="R - wskaźnik" style="rounded=0;whiteSpace=wrap;html=1;" vertex="1" parent="4">
          <mxGeometry x="130" y="190" width="120" height="18" as="geometry" />
        </mxCell>
        <mxCell id="lHbRoRdoCdreXLFXU-Cs-72" value="M - wskaźnik śmiertelności" style="whiteSpace=wrap;html=1;" vertex="1" parent="4">
          <mxGeometry x="130" y="240" width="120" height="28" as="geometry" />
        </mxCell>
        <mxCell id="lHbRoRdoCdreXLFXU-Cs-73" value="Ti - ilość dni," style="whiteSpace=wrap;html=1;" vertex="1" parent="4">
          <mxGeometry x="130" y="283" width="120" height="20" as="geometry" />
        </mxCell>
        <mxCell id="lHbRoRdoCdreXLFXU-Cs-74" value="Tm - ilość dni od zarazenia do smierci" style="whiteSpace=wrap;html=1;" vertex="1" parent="4">
          <mxGeometry x="130" y="320" width="120" height="38" as="geometry" />
        </mxCell>
        <mxCell id="lHbRoRdoCdreXLFXU-Cs-75" value="Ts - Ilość dni dla których ma być symulacja" style="whiteSpace=wrap;html=1;" vertex="1" parent="4">
          <mxGeometry x="130" y="380" width="120" height="40" as="geometry" />
        </mxCell>
        <mxCell id="lHbRoRdoCdreXLFXU-Cs-58" style="edgeStyle=orthogonalEdgeStyle;rounded=0;orthogonalLoop=1;jettySize=auto;html=1;exitX=0.5;exitY=1;exitDx=0;exitDy=0;" edge="1" parent="1" source="lHbRoRdoCdreXLFXU-Cs-44">
          <mxGeometry relative="1" as="geometry">
            <mxPoint x="110" y="320" as="targetPoint" />
          </mxGeometry>
        </mxCell>
      </root>
    </mxGraphModel>
  </diagram>
</mxfile>
